<svg width="986" height="40" viewBox="0 0 986 40" fill="none" xmlns="http://www.w3.org/2000/svg">
<rect opacity="0.1" width="40" height="40" rx="20" fill="#DB7FDB"/>
<rect opacity="0.1" x="70" width="40" height="40" rx="20" fill="#DB7FDB"/>
<rect opacity="0.2" x="140" width="40" height="40" rx="20" fill="#DB7FDB"/>
<rect opacity="0.4" x="210" width="40" height="40" rx="20" fill="#DB7FDB"/>
<rect opacity="0.1" x="280" width="40" height="40" rx="20" fill="#DB7FDB"/>
<rect opacity="0.1" x="350" width="40" height="40" rx="20" fill="#DB7FDB"/>
<rect opacity="0.1" x="420" width="40" height="40" rx="20" fill="#DB7FDB"/>
<rect opacity="0.1" x="490" width="40" height="40" rx="20" fill="#DB7FDB"/>
<rect opacity="0.1" x="560" width="40" height="40" rx="20" fill="#DB7FDB"/>
<rect opacity="0.4" x="630" width="40" height="40" rx="20" fill="#DB7FDB"/>
<rect opacity="0.1" x="700" width="40" height="40" rx="20" fill="#DB7FDB"/>
<rect opacity="0.1" x="770" width="40" height="40" rx="20" fill="#DB7FDB"/>
<rect opacity="0.1" x="840" width="40" height="40" rx="20" fill="#DB7FDB"/>
<rect opacity="0.1" x="910" width="40" height="40" rx="20" fill="#DB7FDB"/>
<rect opacity="0.1" x="980" width="40" height="40" rx="20" fill="#DB7FDB"/>
</svg>
